<?xml version="1.0" encoding="UTF-8" standalone="no"?>
<!-- Created with Inkscape (http://www.inkscape.org/) -->

<svg
   width="1024mm"
   height="1024mm"
   viewBox="0 0 1024 1024"
   version="1.1"
   id="svg1"
   xml:space="preserve"
   sodipodi:docname="saranda_log_nobg_refined.svg"
   inkscape:version="1.4.2 (f4327f4, 2025-05-13)"
   xmlns:inkscape="http://www.inkscape.org/namespaces/inkscape"
   xmlns:sodipodi="http://sodipodi.sourceforge.net/DTD/sodipodi-0.dtd"
   xmlns:xlink="http://www.w3.org/1999/xlink"
   xmlns="http://www.w3.org/2000/svg"
   xmlns:svg="http://www.w3.org/2000/svg"><defs
   id="defs1"><linearGradient
     id="linearGradient16"
     inkscape:collect="always"><stop
       style="stop-color:#786c2f;stop-opacity:1;"
       offset="0"
       id="stop12" /><stop
       style="stop-color:#fcf658;stop-opacity:1;"
       offset="0.27401924"
       id="stop20" /><stop
       style="stop-color:#fffe5f;stop-opacity:1;"
       offset="0.49290079"
       id="stop19" /><stop
       style="stop-color:#fcfbc5;stop-opacity:1;"
       offset="0.53915298"
       id="stop18" /><stop
       style="stop-color:#fefe30;stop-opacity:1;"
       offset="0.58567977"
       id="stop17" /><stop
       style="stop-color:#e6bb19;stop-opacity:1;"
       offset="0.68512082"
       id="stop13" /><stop
       style="stop-color:#f5c63a;stop-opacity:1;"
       offset="0.80182177"
       id="stop14" /><stop
       style="stop-color:#fee91c;stop-opacity:1;"
       offset="0.88442057"
       id="stop15" /><stop
       style="stop-color:#f4b514;stop-opacity:1;"
       offset="1"
       id="stop16" /></linearGradient><linearGradient
     id="linearGradient1"
     inkscape:collect="always"><stop
       style="stop-color:#755e09;stop-opacity:1;"
       offset="0"
       id="stop1" /><stop
       style="stop-color:#e6bb19;stop-opacity:1;"
       offset="0.48079765"
       id="stop7" /><stop
       style="stop-color:#fef21b;stop-opacity:1;"
       offset="0.7168597"
       id="stop5" /><stop
       style="stop-color:#f9d317;stop-opacity:1;"
       offset="0.88442057"
       id="stop6" /><stop
       style="stop-color:#f4b514;stop-opacity:1;"
       offset="1"
       id="stop2" /></linearGradient><linearGradient
     inkscape:collect="always"
     xlink:href="#linearGradient1"
     id="linearGradient2"
     x1="1368.4672"
     y1="254.70065"
     x2="513.16284"
     y2="520.18982"
     gradientUnits="userSpaceOnUse" /><linearGradient
     inkscape:collect="always"
     xlink:href="#linearGradient16"
     id="linearGradient12"
     x1="1093.5645"
     y1="84.668274"
     x2="508.43469"
     y2="423.24155"
     gradientUnits="userSpaceOnUse" /><linearGradient
     inkscape:collect="always"
     xlink:href="#linearGradient1"
     id="linearGradient20"
     x1="185.09206"
     y1="453.86877"
     x2="780.67041"
     y2="33.262337"
     gradientUnits="userSpaceOnUse" /><linearGradient
     inkscape:collect="always"
     xlink:href="#linearGradient1"
     id="linearGradient21"
     x1="185.09206"
     y1="453.86877"
     x2="780.67041"
     y2="33.262337"
     gradientUnits="userSpaceOnUse" /></defs>
  <sodipodi:namedview
   id="namedview1"
   pagecolor="#ffffff"
   bordercolor="#000000"
   borderopacity="0.25"
   inkscape:showpageshadow="2"
   inkscape:pageopacity="0.0"
   inkscape:pagecheckerboard="0"
   inkscape:deskcolor="#d1d1d1"
   inkscape:document-units="mm"
   inkscape:zoom="0.1767767"
   inkscape:cx="1332.1891"
   inkscape:cy="1982.7274"
   inkscape:window-width="1920"
   inkscape:window-height="1009"
   inkscape:window-x="-8"
   inkscape:window-y="-8"
   inkscape:window-maximized="1"
   inkscape:current-layer="g84" />
  <g
   id="g84"
   inkscape:label="logo"
   style="fill-rule:nonzero;fill-opacity:1;stroke:#000000;stroke-opacity:1;stroke-width:0;stroke-dasharray:none"
   transform="matrix(1.0027009,0,0,1.0034845,0,22)">
    <g
   id="g52"
   inkscape:label="right_side"
   transform="translate(0.56842819,-23.067188)"
   style="display:inline;fill-rule:nonzero;fill-opacity:1;stroke:#000000;stroke-opacity:1;stroke-width:0;stroke-dasharray:none;fill:url(#linearGradient12)">
      <g
   id="g34"
   inkscape:label="wing_feathers"
   style="fill-rule:nonzero;fill-opacity:1;stroke:#000000;stroke-opacity:1;stroke-width:0;stroke-dasharray:none;fill:url(#linearGradient12)">
        <path
   d="M 970.72878,23.067188 C 948.66047,75.652889 917.97777,121.63748 878.91698,152.81811 852.88605,307.84278 750.7703,365.82408 697.65862,391.76215 857.63781,375.90016 982.36276,143.06962 970.72878,23.067188 Z"
   style="display:inline;opacity:1;fill-opacity:1;stroke-width:0;fill-rule:nonzero;stroke:#000000;stroke-opacity:1;stroke-dasharray:none;fill:url(#linearGradient12)"
   id="path1-16-0-2"
   inkscape:label="feather"
   sodipodi:nodetypes="cccc" />
        <path
   d="m 841.50206,152.11114 c -6.22995,27.42255 -25.45815,61.4146 -33.6631,69.02601 C 789.24484,309.68107 721.02389,363.00651 684.91332,382.61093 799.70555,352.4522 863.09451,221.88478 841.50206,152.11114 Z"
   style="display:inline;fill-opacity:1;stroke-width:0;fill-rule:nonzero;stroke:#000000;stroke-opacity:1;stroke-dasharray:none;fill:url(#linearGradient12)"
   id="path1-16-0-4"
   inkscape:label="feather"
   sodipodi:nodetypes="cccc" />
        <path
   d="M 1020.6733,86.910332 C 978.92847,159.96857 968.71607,170.66564 931.8048,199.9908 852.6698,361.77264 738.59045,396.5929 698.24753,409.20476 880.2052,388.06275 1001.0464,226.60962 1020.6733,86.910332 Z"
   style="display:inline;fill-opacity:1;stroke-width:0;fill-rule:nonzero;stroke:#000000;stroke-opacity:1;stroke-dasharray:none;fill:url(#linearGradient12)"
   id="path1-16-0-8"
   inkscape:label="feather"
   sodipodi:nodetypes="cccc" />
        <path
   d="m 1005.7927,243.77672 c -21.8712,23.37423 -35.39586,29.65494 -63.84248,41.31467 -86.12756,124.61084 -198.7348,132.93296 -240.18181,136.34407 147.36288,26.70186 305.74309,-107.51707 304.02429,-177.65874 z"
   style="display:inline;fill-opacity:1;stroke-width:0;fill-rule:nonzero;stroke:#000000;stroke-opacity:1;stroke-dasharray:none;fill:url(#linearGradient12)"
   id="path1-16-0-8-9"
   inkscape:label="feather"
   sodipodi:nodetypes="cccc" />
        <path
   d="m 955.39097,372.51736 c -19.52907,14.00572 -42.73473,13.96043 -62.59363,13.90953 -62.96648,45.499 -125.74492,45.07081 -186.44942,42.49649 100.78058,36.3306 225.25869,25.96675 249.04305,-56.40602 z"
   style="display:inline;fill-opacity:1;stroke-width:0;fill-rule:nonzero;stroke:#000000;stroke-opacity:1;stroke-dasharray:none;fill:url(#linearGradient12)"
   id="path1-16-0-8-9-8"
   inkscape:label="feather"
   sodipodi:nodetypes="cccc" />
        <path
   d="m 827.96308,503.61174 c 8.39407,-15.91795 15.98104,-26.84615 17.02427,-47.19061 -16.44069,5.13214 -53.4569,22.20976 -164.19609,-33.78067 l -22.21259,12.49636 c 62.09417,61.44294 150.95012,67.91572 169.38441,68.47492 z"
   style="display:inline;fill-opacity:1;stroke-width:0;fill-rule:nonzero;stroke:#000000;stroke-opacity:1;stroke-dasharray:none;fill:url(#linearGradient12)"
   id="path1-34-3"
   sodipodi:nodetypes="ccccc"
   inkscape:label="feather" />
        <path
   d="m 771.69434,552.3414 c 21.09109,-10.21349 30.15018,-16.17328 43.33839,-37.43782 -29.13771,-3.70057 -80.32307,-12.38503 -163.82806,-76.65613 l -18.53229,14.15249 c 28.60346,53.5303 102.55421,92.57371 139.02196,99.94146 z"
   style="display:inline;fill-opacity:1;stroke-width:0;fill-rule:nonzero;stroke:#000000;stroke-opacity:1;stroke-dasharray:none;fill:url(#linearGradient12)"
   id="path1-34-3-6"
   sodipodi:nodetypes="ccccc"
   inkscape:label="feather" />
        <path
   d="m 698.56995,574.45702 c 19.43496,-0.4607 35.3026,-4.94837 53.09118,-17.19619 C 719.7632,543.07142 688.45144,532.91484 626.10816,456.86679 l -15.40404,9.92014 c 27.31536,52.79424 64.09511,88.34137 87.86583,107.67009 z"
   style="display:inline;fill-opacity:1;stroke-width:0;fill-rule:nonzero;stroke:#000000;stroke-opacity:1;stroke-dasharray:none;fill:url(#linearGradient12)"
   id="path1-34-3-6-7"
   sodipodi:nodetypes="ccccc"
   inkscape:label="feather" />
        <path
   d="m 637.70571,585.37127 c 13.05917,4.48379 35.17249,4.42014 56.21402,-5.87591 -37.23277,-23.4278 -74.39985,-83.28952 -86.25728,-109.89266 l -20.60877,16.29593 c 6.49645,23.908 27.14155,74.67896 50.65203,99.47264 z"
   style="display:inline;fill-opacity:1;stroke-width:0;fill-rule:nonzero;stroke:#000000;stroke-opacity:1;stroke-dasharray:none;fill:url(#linearGradient12)"
   id="path1-34-3-6-7-1"
   sodipodi:nodetypes="ccccc"
   inkscape:label="feather" />
        <path
   d="m 565.59037,581.46046 c 1.86901,5.00427 33.87131,16.78137 53.35142,5.57449 -21.48848,-17.05201 -30.68015,-59.21766 -39.41474,-94.01824 l -10.32944,5.10577 c -2.4817,22.86705 -4.7374,34.60256 -3.60724,83.33798 z"
   style="display:inline;fill-opacity:1;stroke-width:0;fill-rule:nonzero;stroke:#000000;stroke-opacity:1;stroke-dasharray:none;fill:url(#linearGradient12)"
   id="path1-34-3-6-7-1-3"
   sodipodi:nodetypes="ccccc"
   inkscape:label="feather" />
      </g>
      <path
   d="M 634.32661,702.39882 C 560.86419,655.64664 556.3996,586.2229 554.89999,565.92743 c -3.114,-42.1443 8.44003,-57.37812 7.39274,-70.49321 -4.06784,7.58651 -11.96845,17.16574 -20.80116,25.56409 4.62039,-21.33998 11.54225,-38.67304 20.32154,-56.39538 1.26703,2.43725 2.44327,6.25455 2.2981,15.63383 8.68755,-8.01013 27.44616,-31.24324 40.32333,-40.62264 25.17942,-18.34004 62.7276,-34.24551 70.88624,-47.02198 -11.21742,-2.75738 -21.87735,-10.5446 -21.87735,-10.5446 57.76136,-35.47819 129.52441,-76.50365 151.84758,-169.18125 -42.91447,44.82297 -122.70343,87.75469 -155.15135,96.17008 2.26575,9.11707 2.24617,27.64165 -16.72432,36.14119 -15.07421,6.75385 -43.74317,-3.28295 -51.74842,-13.76762 8.09768,46.47156 -27.61592,122.13928 -57.92971,137.2292 -11.80179,49.2188 -21.63162,75.01005 2.83856,188.411 2.3139,-9.31026 2.98911,-18.20286 3.01886,-26.8631 8.86452,11.52265 49.10191,71.13216 104.73198,72.21178 z"
   style="display:inline;opacity:1;fill-opacity:1;stroke-width:0;fill-rule:nonzero;stroke:#000000;stroke-opacity:1;stroke-dasharray:none;fill:url(#linearGradient12)"
   id="path1-7-5"
   sodipodi:nodetypes="csccccsccccsccccc"
   inkscape:label="feather_edge" />
      <path
   d="m 632.1522,690.68969 c -42.70738,-18.6982 -62.33675,-58.74855 -62.28225,-74.61698 34.77834,27.76294 47.76927,33.88764 85.63757,30.54328 -8.96099,10.8052 -5.01529,14.05814 0.73605,17.64983 -22.51582,8.59256 -24.09137,26.42387 -24.09137,26.42387 z"
   style="display:inline;fill-opacity:1;stroke-width:0;fill-rule:nonzero;stroke:#000000;stroke-opacity:1;stroke-dasharray:none;fill:url(#linearGradient12)"
   id="path1-65-5"
   inkscape:label="feather_legs"
   sodipodi:nodetypes="ccccc" />
      <g
   id="g50"
   inkscape:label="lower_feathers"
   style="fill-rule:nonzero;fill-opacity:1;stroke:#000000;stroke-opacity:1;stroke-width:0;stroke-dasharray:none;fill:url(#linearGradient12)">
        <path
   d="m 514.44639,678.92176 c 9.0105,43.89907 15.77486,81.06826 13.63353,103.33406 -3.9737,-0.64405 -5.62614,-1.98296 -7.71708,-5.21435 2.31389,19.08914 4.70659,41.42719 -1.49307,69.28047 14.51052,-1.47116 23.30639,77.7964 -3.26858,71.40817 17.1591,35.52589 8.92388,59.03334 -1.8647,81.93414 86.36687,-25.24293 36.84392,-252.46449 0.7099,-320.74249 z"
   style="display:inline;fill-opacity:1;stroke-width:0;fill-rule:nonzero;stroke:#000000;stroke-opacity:1;stroke-dasharray:none;fill:url(#linearGradient12)"
   id="path1-84-5"
   sodipodi:nodetypes="ccccccc"
   inkscape:label="lower_feather" />
        <path
   d="m 519.08031,664.45101 c 60.53729,144.35029 55.3598,268.69523 46.13264,296.28028 94.69443,-75.72878 -12.08051,-247.25976 -46.13264,-296.28028 z"
   style="display:inline;fill-opacity:1;stroke-width:0;fill-rule:nonzero;stroke:#000000;stroke-opacity:1;stroke-dasharray:none;fill:url(#linearGradient12)"
   id="path1-84-5-7"
   sodipodi:nodetypes="ccc"
   inkscape:label="lower_feather" />
        <path
   d="m 525.1617,657.96282 c 33.47271,40.25576 64.72831,100.0621 82.56572,166.16213 33.79913,-80.93351 3.53367,-103.08885 -82.56572,-166.16213 z"
   style="display:inline;fill-opacity:1;stroke-width:0;fill-rule:nonzero;stroke:#000000;stroke-opacity:1;stroke-dasharray:none;fill:url(#linearGradient12)"
   id="path1-84-5-7-5"
   sodipodi:nodetypes="ccc"
   inkscape:label="lower_feather" />
      </g>
      <path
   d="m 692.59779,699.8432 c -9.13388,0.53844 -14.59094,-3.28516 -14.49607,-5.59075 0.0949,-2.3056 11.34406,-10.57444 19.10002,-10.6277 21.35502,-0.76697 25.97566,4.24124 28.77943,14.67987 7.2183,-3.26951 10.96228,-14.76202 6.24455,-19.88017 -5.46543,-5.92929 -15.44055,-9.15459 -21.5651,-9.15459 -8.70897,0 -0.88809,-1.36223 21.37058,-4.34888 1.68945,1.53915 -0.11622,-1.17365 7.97412,8.34164 1.2881,-11.02006 -3.86763,-14.53867 -8.30845,-17.57075 -11.2299,0.32534 -25.53637,1.22893 -36.51981,5.28832 -10.98344,4.05939 -15.2435,9.22341 -21.63873,10.09532 -6.39523,0.87192 -18.57841,-4.98964 -35.45005,6.83221 -0.77586,5.60299 23.71013,4.83144 25.26537,12.11247 1.55524,7.28103 -0.35654,18.43059 3.02306,22.16373 8.46866,5.99679 10.72338,-4.15866 26.22108,-12.34072 z"
   style="display:inline;fill-opacity:1;stroke-width:0;fill-rule:nonzero;stroke:#000000;stroke-opacity:1;stroke-dasharray:none;fill:url(#linearGradient12)"
   id="path1-0-5"
   sodipodi:nodetypes="czccccccczzczzc"
   inkscape:label="claws" />
      <path
   d="m 517.7747,387.83422 c 16.37659,-19.13284 -6.09096,-16.63181 -1.39602,-25.19623 5.67115,-10.34523 37.14215,-36.09339 38.45395,-35.90938 3.62724,0.50882 21.71999,44.345 12.29677,71.56849 -10.41773,30.09656 -5.42115,4.60936 -9.93642,-7.46143 -1.53167,37.04598 -21.10429,73.97327 -18.83538,55.27923 1.72304,-14.19652 3.49674,-22.91234 1.55956,-20.87345 -4.48677,4.72234 -26.27964,56.89766 -25.4814,40.43072 1.94838,-40.19357 4.1508,-26.14218 3.33894,-77.83795 z"
   style="display:inline;opacity:1;fill-opacity:1;stroke-width:0;fill-rule:nonzero;stroke:#000000;stroke-opacity:1;stroke-dasharray:none;fill:url(#linearGradient12)"
   id="path1-1-3"
   sodipodi:nodetypes="cssscsssc"
   inkscape:label="neck_feather" />
    </g>
    <g
   id="g68"
   inkscape:label="left_side"
   transform="matrix(-1,0,0,1,1020.6733,-23.067188)"
   style="fill-rule:nonzero;fill-opacity:1;stroke:#000000;stroke-opacity:1;stroke-width:0;stroke-dasharray:none;fill:url(#linearGradient2)">
      <g
   id="g61"
   inkscape:label="wing_feathers"
   style="fill-rule:nonzero;fill-opacity:1;stroke:#000000;stroke-opacity:1;stroke-width:0;stroke-dasharray:none;fill:url(#linearGradient2)">
        <path
   d="M 970.72878,23.067188 C 948.66047,75.652889 917.97777,121.63748 878.91698,152.81811 852.88605,307.84278 750.7703,365.82408 697.65862,391.76215 857.63781,375.90016 982.36276,143.06962 970.72878,23.067188 Z"
   style="display:inline;opacity:1;fill-opacity:1;stroke-width:0;fill-rule:nonzero;stroke:#000000;stroke-opacity:1;stroke-dasharray:none;fill:url(#linearGradient2)"
   id="path52"
   inkscape:label="feather"
   sodipodi:nodetypes="cccc" />
        <path
   d="m 841.50206,152.11114 c -6.22995,27.42255 -25.45815,61.4146 -33.6631,69.02601 C 789.24484,309.68107 721.02389,363.00651 684.91332,382.61093 799.70555,352.4522 863.09451,221.88478 841.50206,152.11114 Z"
   style="display:inline;fill-opacity:1;stroke-width:0;fill-rule:nonzero;stroke:#000000;stroke-opacity:1;stroke-dasharray:none;fill:url(#linearGradient2)"
   id="path53"
   inkscape:label="feather"
   sodipodi:nodetypes="cccc" />
        <path
   d="M 1020.6733,86.910332 C 978.92847,159.96857 968.71607,170.66564 931.8048,199.9908 852.6698,361.77264 738.59045,396.5929 698.24753,409.20476 880.2052,388.06275 1001.0464,226.60962 1020.6733,86.910332 Z"
   style="display:inline;fill-opacity:1;stroke-width:0;fill-rule:nonzero;stroke:#000000;stroke-opacity:1;stroke-dasharray:none;fill:url(#linearGradient2)"
   id="path54"
   inkscape:label="feather"
   sodipodi:nodetypes="cccc" />
        <path
   d="m 1005.7927,243.77672 c -21.8712,23.37423 -35.39586,29.65494 -63.84248,41.31467 -86.12756,124.61084 -198.7348,132.93296 -240.18181,136.34407 147.36288,26.70186 305.74309,-107.51707 304.02429,-177.65874 z"
   style="display:inline;fill-opacity:1;stroke-width:0;fill-rule:nonzero;stroke:#000000;stroke-opacity:1;stroke-dasharray:none;fill:url(#linearGradient2)"
   id="path55"
   inkscape:label="feather"
   sodipodi:nodetypes="cccc" />
        <path
   d="m 955.39097,372.51736 c -19.52907,14.00572 -42.73473,13.96043 -62.59363,13.90953 -62.96648,45.499 -125.74492,45.07081 -186.44942,42.49649 100.78058,36.3306 225.25869,25.96675 249.04305,-56.40602 z"
   style="display:inline;fill-opacity:1;stroke-width:0;fill-rule:nonzero;stroke:#000000;stroke-opacity:1;stroke-dasharray:none;fill:url(#linearGradient2)"
   id="path56"
   inkscape:label="feather"
   sodipodi:nodetypes="cccc" />
        <path
   d="m 827.96308,503.61174 c 8.39407,-15.91795 15.98104,-26.84615 17.02427,-47.19061 -16.44069,5.13214 -53.4569,22.20976 -164.19609,-33.78067 l -22.21259,12.49636 c 62.09417,61.44294 150.95012,67.91572 169.38441,68.47492 z"
   style="display:inline;fill-opacity:1;stroke-width:0;fill-rule:nonzero;stroke:#000000;stroke-opacity:1;stroke-dasharray:none;fill:url(#linearGradient2)"
   id="path57"
   sodipodi:nodetypes="ccccc"
   inkscape:label="feather" />
        <path
   d="m 771.69434,552.3414 c 21.09109,-10.21349 30.15018,-16.17328 43.33839,-37.43782 -29.13771,-3.70057 -80.32307,-12.38503 -163.82806,-76.65613 l -18.53229,14.15249 c 28.60346,53.5303 102.55421,92.57371 139.02196,99.94146 z"
   style="display:inline;fill-opacity:1;stroke-width:0;fill-rule:nonzero;stroke:#000000;stroke-opacity:1;stroke-dasharray:none;fill:url(#linearGradient2)"
   id="path58"
   sodipodi:nodetypes="ccccc"
   inkscape:label="feather" />
        <path
   d="m 698.56995,574.45702 c 19.43496,-0.4607 35.3026,-4.94837 53.09118,-17.19619 C 719.7632,543.07142 688.45144,532.91484 626.10816,456.86679 l -15.40404,9.92014 c 27.31536,52.79424 64.09511,88.34137 87.86583,107.67009 z"
   style="display:inline;fill-opacity:1;stroke-width:0;fill-rule:nonzero;stroke:#000000;stroke-opacity:1;stroke-dasharray:none;fill:url(#linearGradient2)"
   id="path59"
   sodipodi:nodetypes="ccccc"
   inkscape:label="feather" />
        <path
   d="m 637.70571,585.37127 c 13.05917,4.48379 35.17249,4.42014 56.21402,-5.87591 -37.23277,-23.4278 -74.39985,-83.28952 -86.25728,-109.89266 l -20.60877,16.29593 c 6.49645,23.908 27.14155,74.67896 50.65203,99.47264 z"
   style="display:inline;fill-opacity:1;stroke-width:0;fill-rule:nonzero;stroke:#000000;stroke-opacity:1;stroke-dasharray:none;fill:url(#linearGradient2)"
   id="path60"
   sodipodi:nodetypes="ccccc"
   inkscape:label="feather" />
        <path
   d="m 565.59037,581.46046 c 1.86901,5.00427 33.87131,16.78137 53.35142,5.57449 -21.48848,-17.05201 -30.68015,-59.21766 -39.41474,-94.01824 l -10.32944,5.10577 c -2.4817,22.86705 -4.7374,34.60256 -3.60724,83.33798 z"
   style="display:inline;fill-opacity:1;stroke-width:0;fill-rule:nonzero;stroke:#000000;stroke-opacity:1;stroke-dasharray:none;fill:url(#linearGradient2)"
   id="path61"
   sodipodi:nodetypes="ccccc"
   inkscape:label="feather" />
      </g>
      <path
   d="M 634.32661,702.39882 C 560.86419,655.64664 556.3996,586.2229 554.89999,565.92743 c -3.114,-42.1443 8.44003,-57.37812 7.39274,-70.49321 -4.06784,7.58651 -11.96845,17.16574 -20.80116,25.56409 4.62039,-21.33998 11.54225,-38.67304 20.32154,-56.39538 1.26703,2.43725 2.44327,6.25455 2.2981,15.63383 8.68755,-8.01013 27.44616,-31.24324 40.32333,-40.62264 25.17942,-18.34004 62.7276,-34.24551 70.88624,-47.02198 -11.21742,-2.75738 -21.87735,-10.5446 -21.87735,-10.5446 57.76136,-35.47819 129.52441,-76.50365 151.84758,-169.18125 -42.91447,44.82297 -122.70343,87.75469 -155.15135,96.17008 2.26575,9.11707 2.24617,27.64165 -16.72432,36.14119 -15.07421,6.75385 -43.74317,-3.28295 -51.74842,-13.76762 8.09768,46.47156 -27.61592,122.13928 -57.92971,137.2292 -11.80179,49.2188 -21.63162,75.01005 2.83856,188.411 2.3139,-9.31026 2.98911,-18.20286 3.01886,-26.8631 8.86452,11.52265 49.10191,71.13216 104.73198,72.21178 z"
   style="display:inline;opacity:1;fill-opacity:1;stroke-width:0;fill-rule:nonzero;stroke:#000000;stroke-opacity:1;stroke-dasharray:none;fill:url(#linearGradient2)"
   id="path62"
   sodipodi:nodetypes="csccccsccccsccccc"
   inkscape:label="feather_edge" />
      <path
   d="m 632.1522,690.68969 c -42.70738,-18.6982 -62.33675,-58.74855 -62.28225,-74.61698 34.77834,27.76294 47.76927,33.88764 85.63757,30.54328 -8.96099,10.8052 -5.01529,14.05814 0.73605,17.64983 -22.51582,8.59256 -24.09137,26.42387 -24.09137,26.42387 z"
   style="display:inline;fill-opacity:1;stroke-width:0;fill-rule:nonzero;stroke:#000000;stroke-opacity:1;stroke-dasharray:none;fill:url(#linearGradient2)"
   id="path63"
   inkscape:label="feather_legs"
   sodipodi:nodetypes="ccccc" />
      <g
   id="g66"
   inkscape:label="lower_feathers"
   style="fill-rule:nonzero;fill-opacity:1;stroke:#000000;stroke-opacity:1;stroke-width:0;stroke-dasharray:none;fill:url(#linearGradient2)">
        <path
   d="m 514.44639,678.92176 c 9.0105,43.89907 15.77486,81.06826 13.63353,103.33406 -3.9737,-0.64405 -5.62614,-1.98296 -7.71708,-5.21435 2.31389,19.08914 4.70659,41.42719 -1.49307,69.28047 14.51052,-1.47116 23.30639,77.7964 -3.26858,71.40817 17.1591,35.52589 8.92388,59.03334 -1.8647,81.93414 86.36687,-25.24293 36.84392,-252.46449 0.7099,-320.74249 z"
   style="display:inline;fill-opacity:1;stroke-width:0;fill-rule:nonzero;stroke:#000000;stroke-opacity:1;stroke-dasharray:none;fill:url(#linearGradient2)"
   id="path64"
   sodipodi:nodetypes="ccccccc"
   inkscape:label="lower_feather" />
        <path
   d="m 519.08031,664.45101 c 60.53729,144.35029 55.3598,268.69523 46.13264,296.28028 94.69443,-75.72878 -12.08051,-247.25976 -46.13264,-296.28028 z"
   style="display:inline;fill-opacity:1;stroke-width:0;fill-rule:nonzero;stroke:#000000;stroke-opacity:1;stroke-dasharray:none;fill:url(#linearGradient2)"
   id="path65"
   sodipodi:nodetypes="ccc"
   inkscape:label="lower_feather" />
        <path
   d="m 525.1617,657.96282 c 33.47271,40.25576 64.72831,100.0621 82.56572,166.16213 33.79913,-80.93351 3.53367,-103.08885 -82.56572,-166.16213 z"
   style="display:inline;fill-opacity:1;stroke-width:0;fill-rule:nonzero;stroke:#000000;stroke-opacity:1;stroke-dasharray:none;fill:url(#linearGradient2)"
   id="path66"
   sodipodi:nodetypes="ccc"
   inkscape:label="lower_feather" />
      </g>
      <path
   d="m 692.59779,699.8432 c -9.13388,0.53844 -14.59094,-3.28516 -14.49607,-5.59075 0.0949,-2.3056 11.34406,-10.57444 19.10002,-10.6277 21.35502,-0.76697 25.97566,4.24124 28.77943,14.67987 7.2183,-3.26951 10.96228,-14.76202 6.24455,-19.88017 -5.46543,-5.92929 -15.44055,-9.15459 -21.5651,-9.15459 -8.70897,0 -0.88809,-1.36223 21.37058,-4.34888 1.68945,1.53915 -0.11622,-1.17365 7.97412,8.34164 1.2881,-11.02006 -3.86763,-14.53867 -8.30845,-17.57075 -11.2299,0.32534 -25.53637,1.22893 -36.51981,5.28832 -10.98344,4.05939 -15.2435,9.22341 -21.63873,10.09532 -6.39523,0.87192 -18.57841,-4.98964 -35.45005,6.83221 -0.77586,5.60299 23.71013,4.83144 25.26537,12.11247 1.55524,7.28103 -0.35654,18.43059 3.02306,22.16373 8.46866,5.99679 10.72338,-4.15866 26.22108,-12.34072 z"
   style="display:inline;fill-opacity:1;stroke-width:0;fill-rule:nonzero;stroke:#000000;stroke-opacity:1;stroke-dasharray:none;fill:url(#linearGradient2)"
   id="path67"
   sodipodi:nodetypes="czccccccczzczzc"
   inkscape:label="claws" />
      <path
   d="m 517.7747,387.83422 c 16.37659,-19.13284 -6.09096,-16.63181 -1.39602,-25.19623 5.67115,-10.34523 37.14215,-36.09339 38.45395,-35.90938 3.62724,0.50882 21.71999,44.345 12.29677,71.56849 -10.41773,30.09656 -5.42115,4.60936 -9.93642,-7.46143 -1.53167,37.04598 -21.10429,73.97327 -18.83538,55.27923 1.72304,-14.19652 3.49674,-22.91234 1.55956,-20.87345 -4.48677,4.72234 -26.27964,56.89766 -25.4814,40.43072 1.94838,-40.19357 4.1508,-26.14218 3.33894,-77.83795 z"
   style="display:inline;opacity:1;fill-opacity:1;stroke-width:0;fill-rule:nonzero;stroke:#000000;stroke-opacity:1;stroke-dasharray:none;fill:url(#linearGradient2)"
   id="path68"
   sodipodi:nodetypes="cssscsssc"
   inkscape:label="neck_feather" />
    </g>
    <path
   d="m 556.68602,289.18444 c 2.58511,-2.01141 1.3571,-7.12008 2.5139,-12.59144 3.20168,-15.14308 -0.22728,-25.43834 -7.26687,-38.556 -1.83239,-3.4145 -3.78768,-7.71836 -3.83039,-9.28238 -0.15034,-5.50509 -10.03555,-14.92463 -19.20517,-17.6241 -3.12108,-0.91882 -9.94643,-1.4457 -17.00762,-1.78421 l -12.83852,-0.61548 v -2.5677 c 0,-1.45969 0.28972,-2.5498 -3.08123,-2.4441 -12.46614,-0.7426 -23.40278,8.36505 -25.332,13.18995 -1.25149,3.12991 -7.43486,11.90674 -7.02106,13.3036 0.55204,1.86353 2.54202,3.30004 5.64893,5.64578 4.97673,3.75744 7.37802,6.44787 5.46819,5.97658 -7.08406,-1.74814 -11.79572,-11.76915 -22.90571,-4.64445 -10.67489,6.84567 -14.33661,25.06656 -10.93804,31.86129 3.27113,-2.83073 8.59534,-5.75685 11.8856,-5.84895 3.66269,-0.10252 12.34634,8.22249 19.4819,3.77642 3.10894,6.40711 1.4761,8.48233 4.19542,8.57985 -6.3565,-0.0818 -7.41766,10.97316 -7.32387,18.21726 0.0378,2.91725 35.33718,39.79881 40.26676,39.1921 1.74861,-0.21521 5.2833,-2.39647 8.86461,-6.8105 m -41.806,-50.60049 c 0,0 17.66898,-3.93237 32.99801,-6.0651 0.28384,16.29102 -0.07,63.45911 -0.07,63.45911 0,0 -1.25331,-47.64278 -4.46728,-57.25509 -0.91064,-2.72355 -19.31913,-0.52876 -28.46073,-0.13892 z m -0.59023,-11.59572 c 0.9011,-0.57072 1.34988,-2.07249 1.0517,-4.1041 -0.37873,-2.58046 -0.16561,-3.32153 1.34985,-3.32153 1.03195,0 2.91566,-0.91288 4.04545,-2.04268 1.1298,-1.12978 2.42089,-2.03115 2.92536,-2.03115 0.91004,0 2.17553,2.44553 2.17553,4.19527 0,0.93625 -15.25089,10.35666 -15.25089,10.35666 0,0 2.92359,-2.5588 3.703,-3.05247 z m 13.76583,-33.64651 12.79209,-2.12236 c -0.65914,2.35365 -5.02725,7.1808 -6.38773,6.70119 -1.31064,-0.46204 -2.78142,-0.31599 -6.40436,-4.57883 z"
   style="display:inline;opacity:1;fill-opacity:1;stroke-width:0;fill-rule:nonzero;stroke:#000000;stroke-opacity:1;stroke-dasharray:none;fill:url(#linearGradient21)"
   id="path1-8-8"
   inkscape:label="head"
   sodipodi:nodetypes="cssssscssssssscsccssccccsccsssccccsccs" />
    <path
   d="m 596.21689,166.03134 c 3.52616,-0.35345 7.61191,-6.60883 2.64771,-9.0976 -4.9642,-2.48876 -7.45574,1.81128 -7.61309,3.20754 -0.35459,3.1465 -0.67805,3.40028 -6.15012,4.82557 -5.2857,1.37676 -27.24166,5.74812 -18.23294,-19.52674 1.57086,-4.40718 2.17355,-5.16413 5.2858,-6.63873 1.93203,-0.91542 6.198,-6.11044 1.64254,-9.07404 -4.55546,-2.96359 -7.18315,1.82756 -6.76782,4.04144 0.41657,2.22056 0.0915,3.21862 -1.76795,5.42849 -6.22314,7.39581 -26.10604,12.67682 -19.12665,-21.14708 1.2924,-6.26367 2.04653,-8.16113 4.07549,-10.2545 5.3088,-5.47729 0.66762,-13.460233 -5.23174,-8.998713 -1.18312,0.89476 -1.52754,1.990103 -1.34096,4.264553 0.53976,6.57939 0.24579,8.19668 -2.71023,14.91065 -3.20646,7.27977 -7.51324,17.40052 -16.80766,17.97945 -4.33089,0 -10.57968,-7.61108 -10.62972,-12.94705 -0.009,-1.05283 0.71759,-2.8493 1.61655,-3.99215 2.19788,-2.79413 1.85665,-10.16892 -3.94163,-9.14529 -5.79829,1.02362 -5.48789,5.82247 -3.00497,8.77324 1.12371,1.33547 2.03875,3.29443 2.03342,4.35326 -0.0147,2.92465 -1.9851,9.69149 -3.9291,13.49368 -4.85251,9.49089 -13.73084,9.05962 -23.11734,-1.12294 -4.05172,-4.39537 -4.2174,-4.82291 -3.08363,-7.95824 1.52047,-4.2048 -0.0459,-7.79831 -3.71217,-6.98222 -7.5418,1.67877 -1.03339,9.24876 -0.46848,13.33817 1.0171,9.36485 4.13111,20.11744 6.06645,29.32651 31.38296,-3.69986 47.00872,0.75275 89.40146,24.76957 l -1.57419,1.66998 c -36.88313,-20.76155 -54.31662,-27.032 -87.55408,-24.79584 l 0.43635,4.17841 c 29.66041,0.64845 51.43592,6.04126 83.8226,24.12745 14.58663,-15.47964 23.68991,-26.40077 29.7361,-27.00683 z m -27.53815,8.9939 2.22774,-0.4565 -0.87429,2.3916 -2.09762,0.1312 z m -36.75597,-15.62146 -0.73524,-3.8704 2.83009,-2.85251 0.58949,3.77922 z m -19.33656,-4.07711 -1.60519,-3.08232 1.68704,-2.95398 1.62074,2.92643 z m -20.19332,-0.69202 -0.79185,-1.61302 0.71497,-1.58109 0.80812,1.56424 z m 58.77453,11.08423 0.34659,-3.21244 2.8581,-1.52268 -0.26597,3.51197 z"
   style="display:inline;fill-opacity:1;stroke-width:0;fill-rule:nonzero;stroke:#000000;stroke-opacity:1;stroke-dasharray:none;fill:url(#linearGradient20)"
   id="path1-4-3"
   inkscape:label="crown"
   sodipodi:nodetypes="scsssscsssssssscscsssssssccccccsccccccccccccccccccccccccc" />
  </g>
</svg>
